<svg width="727" height="727" viewBox="0 0 727 727" fill="none" xmlns="http://www.w3.org/2000/svg">
<circle cx="363.5" cy="363.5" r="363.5" fill="#FFDD40"/>
<path d="M256.393 387.012V495H220.018V219.156H321.754C351.94 219.156 375.559 226.861 392.609 242.27C409.786 257.678 418.375 278.076 418.375 303.463C418.375 330.239 409.976 350.889 393.178 365.414C376.506 379.812 352.572 387.012 321.375 387.012H256.393ZM256.393 357.268H321.754C341.204 357.268 356.108 352.721 366.465 343.627C376.822 334.407 382 321.145 382 303.842C382 287.423 376.822 274.287 366.465 264.436C356.108 254.584 341.899 249.469 323.838 249.09H256.393V357.268ZM503.818 495H467.443V219.156H503.818V495Z" fill="black"/>
</svg>
